<svg id="Icons" height="512" viewBox="0 0 74 74" width="512" xmlns="http://www.w3.org/2000/svg"><path d="m58.349 41.456h-42.7a13.651 13.651 0 1 1 .3-27.3c.525-6.528 7.142-11.706 15.2-11.706a16.736 16.736 0 0 1 11.772 4.594 11.095 11.095 0 0 1 15.743 7.113 13.651 13.651 0 0 1 -.315 27.3zm-42.7-25.3a11.651 11.651 0 1 0 0 23.3h42.7a11.651 11.651 0 1 0 0-23.3c-.074 0-.146.006-.22.011l-.229.013a.976.976 0 0 1 -1.021-.823 9.1 9.1 0 0 0 -13.644-6.2 1 1 0 0 1 -1.264-.2 14.5 14.5 0 0 0 -10.824-4.5c-7.3 0-13.232 4.73-13.232 10.544.009.084.013.14.015.2a1 1 0 0 1 -1.1 1.021c-.387-.047-.78-.068-1.179-.068z"/><path d="m55.992 52.347a1 1 0 0 1 -.957-1.291l.775-2.556a1 1 0 0 1 1.914.581l-.775 2.556a1 1 0 0 1 -.957.71z"/><path d="m53.081 61.948a1 1 0 0 1 -.957-1.291l.776-2.557a1 1 0 1 1 1.914.58l-.774 2.556a1 1 0 0 1 -.959.712z"/><path d="m50.169 71.549a1 1 0 0 1 -.957-1.291l.775-2.556a1 1 0 0 1 1.914.581l-.775 2.556a1 1 0 0 1 -.957.71z"/><path d="m42.979 52.347a1 1 0 0 1 -.957-1.291l.778-2.556a1 1 0 0 1 1.914.58l-.774 2.556a1 1 0 0 1 -.961.711z"/><path d="m40.067 61.948a1 1 0 0 1 -.957-1.291l.775-2.556a1 1 0 0 1 1.914.581l-.775 2.556a1 1 0 0 1 -.957.71z"/><path d="m37.156 71.549a1 1 0 0 1 -.957-1.291l.775-2.556a1 1 0 0 1 1.914.581l-.775 2.556a1 1 0 0 1 -.957.71z"/><path d="m29.966 52.347a1 1 0 0 1 -.957-1.291l.775-2.556a1 1 0 0 1 1.914.581l-.775 2.556a1 1 0 0 1 -.957.71z"/><path d="m27.055 61.948a1 1 0 0 1 -.957-1.291l.775-2.556a1 1 0 0 1 1.914.581l-.775 2.556a1 1 0 0 1 -.957.71z"/><path d="m24.144 71.549a1 1 0 0 1 -.957-1.291l.774-2.556a1 1 0 0 1 1.914.58l-.775 2.556a1 1 0 0 1 -.956.711z"/><path d="m16.953 52.347a1 1 0 0 1 -.953-1.291l.775-2.556a1 1 0 0 1 1.914.581l-.775 2.556a1 1 0 0 1 -.961.71z"/><path d="m14.042 61.948a1 1 0 0 1 -.957-1.291l.774-2.556a1 1 0 1 1 1.914.58l-.773 2.557a1 1 0 0 1 -.958.71z"/><path d="m11.13 71.549a1 1 0 0 1 -.957-1.291l.775-2.556a1 1 0 0 1 1.914.581l-.775 2.556a1 1 0 0 1 -.957.71z"/></svg>