<svg height="511pt" viewBox="1 -21 511.99974 511" width="511pt" xmlns="http://www.w3.org/2000/svg"><path d="m404.480469 282.101562c-17.847657-.398437-35.597657 2.660157-52.285157 9-4.179687 1.433594-8.351562 2.886719-13.046874 4.140626-4.550782 1.222656-7.25 5.90625-6.023438 10.460937 1.222656 4.550781 5.90625 7.25 10.460938 6.023437 5.121093-1.363281 9.632812-2.925781 14.175781-4.496093 14.898437-5.703125 30.769531-8.441407 46.71875-8.0625 15.953125-.382813 31.824219 2.359375 46.726562 8.0625 16.679688 6.335937 34.421875 9.394531 52.257813 9.003906 4.714844 0 8.535156-3.820313 8.535156-8.535156 0-4.710938-3.820312-8.53125-8.535156-8.53125-15.949219.375-31.824219-2.363281-46.726563-8.066407-16.675781-6.335937-34.421875-9.394531-52.257812-9zm0 0"/><path d="m305.425781 316.234375c4.710938 0 8.53125-3.820313 8.53125-8.535156 0-4.710938-3.820312-8.53125-8.53125-8.53125-15.941406.378906-31.804687-2.359375-46.695312-8.066407-16.664063-6.335937-34.398438-9.394531-52.222657-9-17.839843-.398437-35.589843 2.660157-52.269531 9-6.316406 2.324219-12.785156 4.207032-19.359375 5.640626-4.59375 1.054687-7.464844 5.632812-6.410156 10.226562 1.019531 4.4375 5.339844 7.292969 9.824219 6.492188 7.3125-1.570313 14.503906-3.652344 21.527343-6.230469 14.890626-5.699219 30.746094-8.441407 46.6875-8.0625 15.941407-.382813 31.808594 2.359375 46.703126 8.0625 16.660156 6.335937 34.390624 9.394531 52.214843 9.003906zm0 0"/><path d="m8.535156 299.167969c15.941406-.378907 31.800782 2.359375 46.691406 8.0625 14.996094 5.71875 30.886719 8.746093 46.933594 8.933593h.238282c4.714843.058594 8.582031-3.71875 8.636718-8.429687.058594-4.714844-3.71875-8.578125-8.429687-8.636719-14.304688-.15625-28.460938-2.867187-41.8125-7.996094-16.679688-6.339843-34.421875-9.398437-52.257813-9-4.714844 0-8.535156 3.820313-8.535156 8.53125 0 4.714844 3.820312 8.535157 8.535156 8.535157zm0 0"/><path d="m503.464844 350.367188c-15.953125.378906-31.828125-2.359376-46.734375-8.066407-3.414063-1.183593-6.828125-2.371093-10.558594-3.472656-4.542969-1.25-9.238281 1.414063-10.492187 5.957031-1.21875 4.410156 1.257812 8.996094 5.613281 10.394532 3.414062 1.039062 6.65625 2.140624 9.871093 3.25 16.691407 6.34375 34.453126 9.398437 52.300782 9.003906 4.714844 0 8.535156-3.820313 8.535156-8.535156 0-4.710938-3.820312-8.53125-8.535156-8.53125zm0 0"/><path d="m236.972656 353.480469c5.484375 1.367187 10.898438 3.019531 16.210938 4.949219 16.671875 6.339843 34.410156 9.394531 52.242187 9.003906 17.847657.394531 35.605469-2.660156 52.292969-9.003906 14.910156-5.707032 30.796875-8.449219 46.761719-8.0625 1.707031 0 3.351562 0 4.941406.066406 4.628906.179687 8.527344-3.425782 8.707031-8.054688 0-.089844.003906-.175781.003906-.265625.121094-4.710937-3.601562-8.625-8.3125-8.746093-.003906 0-.003906 0-.007812 0-1.730469-.066407-3.515625-.066407-5.332031-.066407-17.847657-.398437-35.605469 2.660157-52.292969 9.003907-14.914062 5.707031-30.796875 8.445312-46.761719 8.0625-15.949219.378906-31.816406-2.363282-46.710937-8.0625-5.839844-2.128907-11.785156-3.9375-17.820313-5.421876-4.542969-1.25-9.242187 1.417969-10.492187 5.960938-1.253906 4.542969 1.417968 9.242188 5.960937 10.492188.199219.058593.402344.105468.609375.144531zm0 0"/><path d="m154.1875 342.300781c-14.882812 5.703125-30.734375 8.441407-46.667969 8.066407-9.691406.136718-19.367187-.78125-28.859375-2.738282-4.574218-1.128906-9.199218 1.667969-10.324218 6.246094-1.128907 4.574219 1.671874 9.199219 6.246093 10.324219.140625.035156.285157.066406.425781.09375 10.691407 2.234375 21.59375 3.285156 32.511719 3.140625 17.84375.394531 35.59375-2.660156 52.277344-9.003906 14.894531-5.703126 30.761719-8.445313 46.710937-8.0625 4.710938 0 8.53125-3.820313 8.53125-8.535157 0-4.710937-3.820312-8.53125-8.53125-8.53125-17.859374-.402343-35.625 2.65625-52.320312 9zm0 0"/><path d="m8.535156 350.367188c10.785156-.179688 21.554688.992187 32.050782 3.5.679687.171874 1.378906.257812 2.082031.253906 4.710937-.019532 8.515625-3.855469 8.496093-8.566406-.015624-3.890626-2.65625-7.273438-6.421874-8.234376-11.851563-2.859374-24.019532-4.210937-36.207032-4.019531-4.714844 0-8.535156 3.820313-8.535156 8.53125 0 4.714844 3.820312 8.535157 8.535156 8.535157zm0 0"/><path d="m503.464844 401.566406c-15.949219.378906-31.824219-2.359375-46.726563-8.0625-16.675781-6.339844-34.421875-9.398437-52.257812-9.003906-17.847657-.394531-35.597657 2.660156-52.285157 9.003906-4.179687 1.433594-8.351562 2.882813-13.046874 4.136719-4.550782 1.226563-7.25 5.910156-6.023438 10.460937 1.222656 4.554688 5.90625 7.25 10.460938 6.027344 5.121093-1.367187 9.632812-2.929687 14.175781-4.5 14.898437-5.703125 30.769531-8.441406 46.71875-8.0625 15.953125-.378906 31.824219 2.359375 46.726562 8.0625 16.679688 6.339844 34.421875 9.394532 52.257813 9.003906 4.714844 0 8.535156-3.820312 8.535156-8.53125 0-4.714843-3.820312-8.535156-8.535156-8.535156zm0 0"/><path d="m313.957031 410.101562c0-4.714843-3.820312-8.535156-8.53125-8.535156-15.941406.378906-31.804687-2.359375-46.695312-8.0625-16.664063-6.339844-34.398438-9.394531-52.222657-9.003906-17.839843-.394531-35.589843 2.660156-52.269531 9.003906-3.703125 1.269532-7.40625 2.558594-11.457031 3.703125-4.542969 1.261719-7.199219 5.964844-5.9375 10.507813 1.265625 4.539062 5.96875 7.195312 10.507812 5.933594.03125-.007813.058594-.015626.085938-.023438 4.378906-1.238281 8.371094-2.621094 12.367188-3.996094 14.894531-5.699218 30.757812-8.441406 46.703124-8.0625 15.941407-.378906 31.808594 2.359375 46.703126 8.0625 16.660156 6.339844 34.390624 9.394532 52.214843 9.003906 4.710938 0 8.53125-3.820312 8.53125-8.53125zm0 0"/><path d="m8.535156 401.566406c16.550782-.257812 33.011719 2.492188 48.578125 8.125 17.257813 6.183594 35.488281 9.210938 53.820313 8.941406 4.710937 0 8.53125-3.820312 8.53125-8.53125 0-4.714843-3.820313-8.535156-8.53125-8.535156-16.550782.261719-33.011719-2.492187-48.582032-8.125-17.257812-6.179687-35.488281-9.210937-53.816406-8.941406-4.714844 0-8.535156 3.820312-8.535156 8.535156 0 4.710938 3.820312 8.53125 8.535156 8.53125zm0 0"/><path d="m503.464844 452.765625c-15.953125.378906-31.828125-2.359375-46.734375-8.0625-12.175781-4.625-24.953125-7.480469-37.941407-8.484375-4.644531-.417969-8.753906 3.007812-9.175781 7.652344-.003906.066406-.007812.128906-.015625.191406-.367187 4.699219 3.144532 8.804688 7.84375 9.171875h.007813c11.539062.898437 22.886719 3.457031 33.691406 7.597656 16.699219 6.34375 34.464844 9.398438 52.324219 9 4.714844 0 8.535156-3.820312 8.535156-8.53125 0-4.714843-3.820312-8.535156-8.535156-8.535156zm0 0"/><path d="m382.925781 436.945312c-10.515625 1.417969-20.839843 4.019532-30.773437 7.757813-14.902344 5.703125-30.773438 8.441406-46.726563 8.0625-10.222656.164063-20.425781-.875-30.40625-3.097656-4.585937-1.078125-9.179687 1.765625-10.261719 6.355469-1.078124 4.585937 1.765626 9.179687 6.355469 10.261718 11.257813 2.523438 22.773438 3.714844 34.3125 3.546875 17.84375.398438 35.597657-2.660156 52.285157-9 8.832031-3.339843 18.011718-5.667969 27.363281-6.949219 4.679687-.59375 7.988281-4.867187 7.394531-9.542968-.59375-4.675782-4.867188-7.988282-9.542969-7.394532zm0 0"/><path d="m240.894531 439.285156c-11.28125-2.550781-22.824219-3.753906-34.386719-3.585937-17.84375-.394531-35.59375 2.660156-52.277343 9.003906-14.894531 5.703125-30.761719 8.445313-46.710938 8.0625-7.007812.050781-14.011719-.390625-20.957031-1.320313-4.65625-.742187-9.027344 2.429688-9.769531 7.085938-.738281 4.652344 2.433593 9.027344 7.085937 9.765625.097656.015625.195313.03125.292969.042969 7.738281 1.042968 15.539063 1.542968 23.347656 1.492187 17.84375.398438 35.59375-2.660156 52.277344-9 14.894531-5.707031 30.761719-8.445312 46.710937-8.066406 10.253907-.164063 20.492188.882813 30.503907 3.117187 4.546875 1.25 9.242187-1.417968 10.496093-5.960937 1.25-4.542969-1.417968-9.242187-5.960937-10.492187-.199219-.058594-.402344-.105469-.609375-.144532zm0 0"/><path d="m53.820312 442.339844c-14.613281-4.75-29.925781-6.992188-45.285156-6.640625-4.714844 0-8.535156 3.820312-8.535156 8.535156 0 4.710937 3.820312 8.53125 8.535156 8.53125 13.582032-.355469 27.125 1.617187 40.046875 5.828125.847657.265625 1.730469.402344 2.617188.402344 4.714843.003906 8.539062-3.8125 8.542969-8.527344.003906-3.707031-2.390626-6.996094-5.921876-8.128906zm0 0"/><path d="m128 256.5h290.132812c37.703126-.164062 68.132813-30.859375 67.96875-68.5625-.140624-32.261719-22.84375-60.019531-54.433593-66.554688-16.878907-27.210937-49.144531-40.746093-80.386719-33.722656-20.164062-50.277344-77.265625-74.6875-127.542969-54.523437-2.46875.992187-4.898437 2.082031-7.28125 3.273437-23.65625-23.074218-55.410156-35.964844-88.457031-35.910156-70.691406 0-128 57.308594-128 128s57.308594 128 128 128zm0-238.933594c27.167969-.070312 53.394531 9.96875 73.574219 28.160156-6.871094 5.097657-13.046875 11.070313-18.371094 17.765626-2.921875 3.699218-2.292969 9.066406 1.40625 11.988281 3.699219 2.925781 9.066406 2.292969 11.988281-1.40625 27.71875-35.160157 78.691406-41.195313 113.851563-13.480469 18.4375 14.535156 29.671875 36.347656 30.789062 59.800781.214844 4.554688 3.972657 8.136719 8.535157 8.128907h.410156c4.707031-.21875 8.34375-4.214844 8.121094-8.921876 0 0 0 0 0-.003906-.277344-5.242187-.972657-10.457031-2.082032-15.589844 25.066406-4.871093 50.410156 6.96875 62.765625 29.3125 1.300781 2.328126 3.621094 3.910157 6.261719 4.265626 27.972656 4.148437 47.285156 30.183593 43.140625 58.15625-3.699219 24.957031-25.027344 43.5-50.257813 43.691406h-290.132812c-61.265625 0-110.933594-49.667969-110.933594-110.933594s49.667969-110.933594 110.933594-110.933594zm0 0"/></svg>